<svg width="24" height="24" viewBox="0 0 24 24" fill="none" xmlns="http://www.w3.org/2000/svg">
<path d="M19.9613 1.65842C19.8714 1.58842 19.7668 1.5398 19.6554 1.51624C19.5439 1.49269 19.4286 1.49482 19.3181 1.52249L7.31813 4.52249C7.15587 4.56304 7.01183 4.65667 6.90889 4.78848C6.80596 4.9203 6.75003 5.08274 6.75 5.24999V15.57C6.12435 15.152 5.37694 14.955 4.62652 15.0104C3.8761 15.0658 3.16571 15.3704 2.60823 15.8758C2.05075 16.3811 1.67814 17.0583 1.54961 17.7997C1.42108 18.5411 1.54399 19.3042 1.89883 19.9678C2.25366 20.6313 2.82007 21.1572 3.50805 21.462C4.19603 21.7668 4.96612 21.8329 5.69598 21.6499C6.42584 21.4668 7.0736 21.0451 7.53635 20.4518C7.99909 19.8584 8.25028 19.1274 8.25 18.375V5.83592L18.75 3.21092V12.57C18.1243 12.152 17.3769 11.955 16.6265 12.0104C15.8761 12.0658 15.1657 12.3704 14.6082 12.8758C14.0507 13.3811 13.6781 14.0583 13.5496 14.7997C13.4211 15.5411 13.544 16.3042 13.8988 16.9678C14.2537 17.6313 14.8201 18.1572 15.508 18.462C16.196 18.7668 16.9661 18.8329 17.696 18.6499C18.4258 18.4668 19.0736 18.0451 19.5363 17.4518C19.9991 16.8584 20.2503 16.1274 20.25 15.375V2.24999C20.25 2.13592 20.224 2.02334 20.174 1.92083C20.124 1.81832 20.0512 1.72858 19.9613 1.65842ZM4.875 20.25C4.50416 20.25 4.14165 20.14 3.83331 19.934C3.52497 19.728 3.28464 19.4351 3.14273 19.0925C3.00082 18.7499 2.96368 18.3729 3.03603 18.0092C3.10838 17.6455 3.28696 17.3114 3.54918 17.0492C3.8114 16.7869 4.1455 16.6084 4.50921 16.536C4.87292 16.4637 5.24992 16.5008 5.59254 16.6427C5.93515 16.7846 6.22798 17.0249 6.43401 17.3333C6.64004 17.6416 6.75 18.0041 6.75 18.375C6.75 18.8723 6.55246 19.3492 6.20083 19.7008C5.8492 20.0524 5.37229 20.25 4.875 20.25ZM16.875 17.25C16.5042 17.25 16.1417 17.14 15.8333 16.934C15.525 16.728 15.2846 16.4351 15.1427 16.0925C15.0008 15.7499 14.9637 15.3729 15.036 15.0092C15.1084 14.6455 15.287 14.3114 15.5492 14.0492C15.8114 13.7869 16.1455 13.6084 16.5092 13.536C16.8729 13.4637 17.2499 13.5008 17.5925 13.6427C17.9351 13.7846 18.228 14.0249 18.434 14.3333C18.64 14.6416 18.75 15.0041 18.75 15.375C18.75 15.8723 18.5525 16.3492 18.2008 16.7008C17.8492 17.0524 17.3723 17.25 16.875 17.25Z" fill="#1F2022"/>
</svg>
