<svg width="24" height="24" viewBox="0 0 24 24" fill="none" xmlns="http://www.w3.org/2000/svg">
<path d="M5.46935 9.53063L2.46935 6.53063C2.39962 6.46098 2.3443 6.37826 2.30656 6.28721C2.26882 6.19616 2.24939 6.09857 2.24939 6.00001C2.24939 5.90144 2.26882 5.80385 2.30656 5.7128C2.3443 5.62175 2.39962 5.53903 2.46935 5.46938L5.46935 2.46938C5.61009 2.32865 5.80096 2.24959 5.99998 2.24959C6.199 2.24959 6.38987 2.32865 6.53061 2.46938C6.67134 2.61011 6.7504 2.80098 6.7504 3.00001C6.7504 3.19903 6.67134 3.3899 6.53061 3.53063L4.06029 6.00001L6.53061 8.46938C6.67134 8.61011 6.7504 8.80098 6.7504 9C6.7504 9.19903 6.67133 9.3899 6.5306 9.53063C6.38987 9.67136 6.199 9.75042 5.99998 9.75042C5.80096 9.75042 5.61009 9.67136 5.46935 9.53063ZM9.21935 9.53063C9.28901 9.60036 9.37173 9.65568 9.46277 9.69342C9.55382 9.73117 9.65142 9.7506 9.74998 9.7506C9.84854 9.7506 9.94614 9.73117 10.0372 9.69342C10.1282 9.65568 10.211 9.60036 10.2806 9.53063L13.2806 6.53063C13.3503 6.46098 13.4057 6.37826 13.4434 6.28721C13.4811 6.19616 13.5006 6.09857 13.5006 6.00001C13.5006 5.90144 13.4811 5.80385 13.4434 5.7128C13.4057 5.62175 13.3503 5.53903 13.2806 5.46938L10.2806 2.46938C10.1399 2.32865 9.949 2.24959 9.74998 2.24959C9.55096 2.24959 9.36009 2.32865 9.21935 2.46938C9.07862 2.61011 8.99956 2.80098 8.99956 3.00001C8.99956 3.19903 9.07862 3.3899 9.21935 3.53063L11.6897 6.00001L9.21935 8.46938C9.14962 8.53903 9.0943 8.62175 9.05656 8.7128C9.01882 8.80385 8.99939 8.90144 8.99939 9C8.99939 9.09857 9.01882 9.19616 9.05656 9.28721C9.0943 9.37826 9.14962 9.46098 9.21935 9.53063ZM18.75 3.75001H16.5C16.3011 3.75001 16.1103 3.82902 15.9696 3.96968C15.829 4.11033 15.75 4.30109 15.75 4.50001C15.75 4.69892 15.829 4.88968 15.9696 5.03033C16.1103 5.17099 16.3011 5.25001 16.5 5.25001H18.75V18.75H5.24998V12.75C5.24998 12.5511 5.17096 12.3603 5.03031 12.2197C4.88966 12.079 4.69889 12 4.49998 12C4.30107 12 4.1103 12.079 3.96965 12.2197C3.829 12.3603 3.74998 12.5511 3.74998 12.75V18.75C3.74998 19.1478 3.90801 19.5294 4.18932 19.8107C4.47062 20.092 4.85215 20.25 5.24998 20.25H18.75C19.1478 20.25 19.5293 20.092 19.8106 19.8107C20.0919 19.5294 20.25 19.1478 20.25 18.75V5.25001C20.25 4.85218 20.0919 4.47065 19.8106 4.18934C19.5293 3.90804 19.1478 3.75001 18.75 3.75001Z" fill="#1F2022"/>
</svg>
