<svg width="24" height="24" viewBox="0 0 24 24" fill="none" xmlns="http://www.w3.org/2000/svg">
<path d="M9 9H7.5C7.30109 9 7.11032 9.07902 6.96967 9.21967C6.82902 9.36032 6.75 9.55109 6.75 9.75V14.25C6.75 14.4489 6.82902 14.6397 6.96967 14.7803C7.11032 14.921 7.30109 15 7.5 15C7.69891 15 7.88968 14.921 8.03033 14.7803C8.17098 14.6397 8.25 14.4489 8.25 14.25V13.5H9C9.59674 13.5 10.169 13.2629 10.591 12.841C11.0129 12.419 11.25 11.8467 11.25 11.25C11.25 10.6533 11.0129 10.081 10.591 9.65901C10.169 9.23705 9.59674 9 9 9ZM9 12H8.25V10.5H9C9.19891 10.5 9.38968 10.579 9.53033 10.7197C9.67098 10.8603 9.75 11.0511 9.75 11.25C9.75 11.4489 9.67098 11.6397 9.53033 11.7803C9.38968 11.921 9.19891 12 9 12ZM12.75 2.25C11.2683 2.25194 9.80634 2.5905 8.47461 3.24013C7.14287 3.88976 5.97614 4.83347 5.0625 6H3.75C3.35218 6 2.97064 6.15804 2.68934 6.43934C2.40804 6.72064 2.25 7.10218 2.25 7.5V16.5C2.25 16.8978 2.40804 17.2794 2.68934 17.5607C2.97064 17.842 3.35218 18 3.75 18H5.0625C6.08026 19.3036 7.4129 20.3269 8.93506 20.9736C10.4572 21.6204 12.1189 21.8693 13.7637 21.6969C15.4086 21.5246 16.9826 20.9366 18.3376 19.9885C19.6927 19.0403 20.7843 17.763 21.5097 16.2767C22.2351 14.7904 22.5706 13.144 22.4845 11.4924C22.3984 9.84082 21.8936 8.23825 21.0175 6.83547C20.1415 5.43269 18.923 4.2758 17.4767 3.47364C16.0304 2.67147 14.4039 2.25039 12.75 2.25ZM20.9653 11.25H15V7.5C15 7.10218 14.842 6.72064 14.5607 6.43934C14.2794 6.15804 13.8978 6 13.5 6V3.78469C15.4199 3.96244 17.2172 4.80606 18.5806 6.16944C19.9439 7.53282 20.7876 9.3301 20.9653 11.25ZM12 3.78469V6H7.09031C8.4344 4.73525 10.1624 3.95558 12 3.78469ZM3.75 7.5H13.5V11.9906C13.4988 11.9968 13.4988 12.0032 13.5 12.0094V16.5H3.75V7.5ZM12 18V20.2153C10.1624 20.0444 8.4344 19.2647 7.09031 18H12ZM13.5 20.2153V18C13.8978 18 14.2794 17.842 14.5607 17.5607C14.842 17.2794 15 16.8978 15 16.5V12.75H20.9653C20.7876 14.6699 19.9439 16.4672 18.5806 17.8306C17.2172 19.1939 15.4199 20.0376 13.5 20.2153Z" fill="#1F2022"/>
</svg>
