<svg width="24" height="24" viewBox="0 0 24 24" fill="none" xmlns="http://www.w3.org/2000/svg">
<path d="M18.75 6.75C17.7075 6.75096 16.6889 7.06228 15.824 7.64427C14.959 8.22626 14.287 9.05258 13.8934 10.0179C13.4998 10.9833 13.4025 12.044 13.614 13.0648C13.8254 14.0856 14.336 15.0204 15.0806 15.75H8.91936C9.78874 14.8982 10.3351 13.7708 10.4651 12.5606C10.5951 11.3505 10.3005 10.1327 9.63187 9.11574C8.9632 8.09874 7.96195 7.34568 6.79939 6.98535C5.63683 6.62502 4.38518 6.67982 3.25856 7.14037C2.13194 7.60092 1.20033 8.43861 0.623101 9.51014C0.04587 10.5817 -0.141122 11.8205 0.0941104 13.0147C0.329343 14.2088 0.972184 15.2842 1.91267 16.0568C2.85316 16.8293 4.03287 17.2511 5.24999 17.25H18.75C20.1424 17.25 21.4777 16.6969 22.4623 15.7123C23.4469 14.7277 24 13.3924 24 12C24 10.6076 23.4469 9.27226 22.4623 8.28769C21.4777 7.30312 20.1424 6.75 18.75 6.75ZM1.49999 12C1.49999 11.2583 1.71992 10.5333 2.13198 9.91661C2.54403 9.29993 3.1297 8.81928 3.81492 8.53545C4.50015 8.25162 5.25415 8.17736 5.98158 8.32205C6.709 8.46675 7.37719 8.8239 7.90164 9.34835C8.42608 9.8728 8.78324 10.541 8.92793 11.2684C9.07263 11.9958 8.99836 12.7498 8.71454 13.4351C8.43071 14.1203 7.95006 14.706 7.33338 15.118C6.71669 15.5301 5.99167 15.75 5.24999 15.75C4.25543 15.75 3.3016 15.3549 2.59834 14.6517C1.89508 13.9484 1.49999 12.9946 1.49999 12ZM18.75 15.75C18.0083 15.75 17.2833 15.5301 16.6666 15.118C16.0499 14.706 15.5693 14.1203 15.2854 13.4351C15.0016 12.7498 14.9273 11.9958 15.072 11.2684C15.2167 10.541 15.5739 9.8728 16.0983 9.34835C16.6228 8.8239 17.291 8.46675 18.0184 8.32205C18.7458 8.17736 19.4998 8.25162 20.1851 8.53545C20.8703 8.81928 21.4559 9.29993 21.868 9.91661C22.2801 10.5333 22.5 11.2583 22.5 12C22.5 12.9946 22.1049 13.9484 21.4016 14.6517C20.6984 15.3549 19.7446 15.75 18.75 15.75Z" fill="#1F2022"/>
</svg>
