<svg width="24" height="24" viewBox="0 0 24 24" fill="none" xmlns="http://www.w3.org/2000/svg">
<path d="M21.3113 6.87842L17.1216 2.68967C16.9823 2.55035 16.8169 2.43983 16.6349 2.36443C16.4529 2.28902 16.2578 2.25021 16.0608 2.25021C15.8638 2.25021 15.6687 2.28902 15.4867 2.36443C15.3047 2.43983 15.1393 2.55035 15 2.68967L3.4397 14.25C3.2998 14.3888 3.18889 14.554 3.11341 14.736C3.03792 14.918 2.99938 15.1132 3.00001 15.3103V19.5C3.00001 19.8978 3.15804 20.2793 3.43935 20.5606C3.72065 20.842 4.10218 21 4.50001 21H8.6897C8.88675 21.0006 9.08197 20.9621 9.26399 20.8866C9.44602 20.8111 9.61123 20.7002 9.75001 20.5603L17.5941 12.7172L17.9203 14.0203L14.4703 17.4694C14.3296 17.61 14.2505 17.8007 14.2504 17.9997C14.2503 18.1986 14.3292 18.3894 14.4699 18.5301C14.6105 18.6709 14.8012 18.75 15.0001 18.7501C15.1991 18.7502 15.3899 18.6712 15.5306 18.5306L19.2806 14.7806C19.3724 14.6891 19.4388 14.5753 19.4735 14.4504C19.5081 14.3256 19.5098 14.1938 19.4784 14.0681L18.8316 11.4797L21.3113 8.99999C21.4506 8.86069 21.5611 8.69532 21.6365 8.51331C21.7119 8.3313 21.7507 8.13622 21.7507 7.93921C21.7507 7.74219 21.7119 7.54711 21.6365 7.3651C21.5611 7.18309 21.4506 7.01772 21.3113 6.87842ZM4.50001 16.8103L7.1897 19.5H4.50001V16.8103ZM9.00001 19.1897L4.81032 15L12.75 7.0603L16.9397 11.25L9.00001 19.1897ZM18 10.1897L13.8113 5.99999L16.0613 3.74999L20.25 7.93967L18 10.1897Z" fill="#1F2022"/>
</svg>
