<svg width="17" height="17" viewBox="0 0 17 17" fill="none" xmlns="http://www.w3.org/2000/svg">
<path d="M8.5 2C7.21442 2 5.95772 2.38122 4.8888 3.09545C3.81988 3.80968 2.98676 4.82484 2.49479 6.01256C2.00282 7.20028 1.87409 8.50721 2.1249 9.76809C2.3757 11.029 2.99477 12.1872 3.90381 13.0962C4.81285 14.0052 5.97104 14.6243 7.23192 14.8751C8.49279 15.1259 9.79973 14.9972 10.9874 14.5052C12.1752 14.0132 13.1903 13.1801 13.9046 12.1112C14.6188 11.0423 15 9.78558 15 8.5C14.9982 6.77665 14.3128 5.12441 13.0942 3.90582C11.8756 2.68722 10.2234 2.00182 8.5 2ZM8.5 14C7.41221 14 6.34884 13.6774 5.44437 13.0731C4.5399 12.4687 3.83495 11.6098 3.41867 10.6048C3.00238 9.59977 2.89347 8.4939 3.10568 7.427C3.3179 6.36011 3.84173 5.3801 4.61092 4.61091C5.3801 3.84172 6.36011 3.3179 7.42701 3.10568C8.4939 2.89346 9.59977 3.00238 10.6048 3.41866C11.6098 3.83494 12.4687 4.53989 13.0731 5.44436C13.6774 6.34883 14 7.4122 14 8.5C13.9983 9.95818 13.4184 11.3562 12.3873 12.3873C11.3562 13.4184 9.95819 13.9983 8.5 14ZM11.5 8.5C11.5 8.63261 11.4473 8.75979 11.3536 8.85355C11.2598 8.94732 11.1326 9 11 9H9V11C9 11.1326 8.94732 11.2598 8.85356 11.3536C8.75979 11.4473 8.63261 11.5 8.5 11.5C8.36739 11.5 8.24022 11.4473 8.14645 11.3536C8.05268 11.2598 8 11.1326 8 11V9H6C5.86739 9 5.74022 8.94732 5.64645 8.85355C5.55268 8.75979 5.5 8.63261 5.5 8.5C5.5 8.36739 5.55268 8.24021 5.64645 8.14645C5.74022 8.05268 5.86739 8 6 8H8V6C8 5.86739 8.05268 5.74021 8.14645 5.64645C8.24022 5.55268 8.36739 5.5 8.5 5.5C8.63261 5.5 8.75979 5.55268 8.85356 5.64645C8.94732 5.74021 9 5.86739 9 6V8H11C11.1326 8 11.2598 8.05268 11.3536 8.14645C11.4473 8.24021 11.5 8.36739 11.5 8.5Z" fill="white"/>
</svg>
